<?xml version="1.0" encoding="utf-8"?>
<!-- Generator: Adobe Illustrator 22.1.0, SVG Export Plug-In . SVG Version: 6.00 Build 0)  -->
<svg version="1.1" id="Layer_1" xmlns="http://www.w3.org/2000/svg" xmlns:xlink="http://www.w3.org/1999/xlink" x="0px" y="0px"
	 viewBox="0 0 1400 900" style="enable-background:new 0 0 1400 900;" xml:space="preserve">
<style type="text/css">
	.st0{clip-path:url(#SVGID_2_);fill:#76FFFF;}
	.st1{clip-path:url(#SVGID_2_);fill:#FFFFFF;}
	.st2{clip-path:url(#SVGID_2_);fill:#FFBC00;}
	.st3{opacity:0.46;clip-path:url(#SVGID_2_);fill:#FFFFFF;}
	.st4{clip-path:url(#SVGID_2_);fill:#C0FFFD;}
	.st5{clip-path:url(#SVGID_2_);fill:#F9D37D;}
	.st6{clip-path:url(#SVGID_2_);fill:#F7C45E;}
	.st7{clip-path:url(#SVGID_2_);fill:#E5B24C;}
	.st8{clip-path:url(#SVGID_2_);fill:#00EAE1;}
	.st9{clip-path:url(#SVGID_2_);fill:#05C6B7;}
	.st10{clip-path:url(#SVGID_2_);fill:#04A898;}
	.st11{clip-path:url(#SVGID_2_);}
	.st12{fill:#C17508;}
	.st13{fill:#A05E07;}
	.st14{fill:#59960B;}
	.st15{fill:#457206;}
	.st16{clip-path:url(#SVGID_2_);fill:#304C05;}
	.st17{clip-path:url(#SVGID_2_);fill:#A05E07;}
	.st18{clip-path:url(#SVGID_2_);fill:#724106;}
	.st19{clip-path:url(#SVGID_2_);fill:#D89C30;}
	.st20{fill:#724106;}
	.st21{clip-path:url(#SVGID_2_);fill:#457206;}
</style>
<g>
	<defs>
		<rect id="SVGID_1_" width="1400" height="900"/>
	</defs>
	<clipPath id="SVGID_2_">
		<use xlink:href="#SVGID_1_"  style="overflow:visible;"/>
	</clipPath>
	<rect class="st0" width="1400" height="900"/>
	<path class="st1" d="M917,318.8c-2.9-23.8-23.1-42.2-47.6-42.2c-11.8,0-22.6,4.3-31,11.4c-7.2-17-24-29-43.5-29.3
		c-4.1-22.4-23.7-39.4-47.2-39.4c-24.9,0-45.4,19-47.8,43.4c-15.3,1.9-27.8,12.6-32.3,26.9c-6.8-3.7-14.6-5.8-22.9-5.8
		c-22,0-40.6,14.8-46.2,35H917z"/>
	<path class="st1" d="M201,144.8H0V77.3c7.2-15.6,22.9-26.4,41.2-26.4c22.2,0,40.7,16,44.6,37.2c18.5,0.2,34.3,11.6,41.1,27.6
		c7.9-6.7,18.1-10.7,29.2-10.7C179.2,105,198.3,122.3,201,144.8z"/>
	<path class="st1" d="M995,120.3c-4.4-15-18.3-26-34.8-26c-5.9,0-11.4,1.4-16.3,3.9c-0.3-23.5-19.4-42.4-42.9-42.4
		c-22.6,0-41.1,17.4-42.8,39.5c-3-1-6.2-1.6-9.6-1.6c-15.5,0-28.3,11.6-30.3,26.5H995z"/>
	<path class="st1" d="M493,162c-3.4-11.6-14.1-20-26.8-20c-4.5,0-8.8,1.1-12.5,3c-0.2-18-14.9-32.6-33-32.6
		c-17.4,0-31.6,13.4-32.9,30.4c-2.3-0.8-4.8-1.2-7.4-1.2c-11.9,0-21.8,8.9-23.3,20.4H493z"/>
	<path class="st1" d="M1412.6,356.3c-5.2-17.6-21.4-30.4-40.6-30.4c-6.9,0-13.3,1.6-19.1,4.5c-0.3-27.4-22.6-49.5-50.1-49.5
		c-26.3,0-47.9,20.3-49.9,46.2c-3.5-1.2-7.3-1.8-11.2-1.8c-18.1,0-33,13.5-35.3,31H1412.6z"/>
	<circle class="st2" cx="1056.2" cy="140.1" r="102.7"/>
	<path class="st3" d="M1400,99.8v69.7c-222.9-4.4-701.1-13.6-737.2-12.6C698,154.5,1161.9,118.4,1400,99.8z"/>
	<path class="st3" d="M1400,15.3v40.4c-204.2-3.8-411.9-7.4-435.2-6.8C987.8,47.3,1193.6,31.4,1400,15.3z"/>
	<path class="st3" d="M677,235c-32.7,3-459.8,9.3-677,12.3v-56.5C223.8,204.7,711.2,231.9,677,235z"/>
	<path class="st3" d="M1400,365.2v27.6c-222.1-9.5-507.3-22-607-27.8C683.9,358.7,1089.1,362,1400,365.2z"/>
	<path class="st3" d="M855,75.9c0,0-870.1-5.2-795.6,2.6S591,116,855,75.9z"/>
	<path class="st3" d="M583,275c0,0,331.6-27.9,646.6,11.1C1229.6,286.1,827.4,289.4,583,275z"/>
	<path class="st3" d="M0,342c147.1-5.6,386.9-7.7,619,21.1c0,0-340,2.8-619-6.7V342z"/>
	<path class="st4" d="M661,157c0.3,0,0.9-0.1,1.7-0.1c-1.2,0.1-1.9,0.1-2,0.1C660.8,157,660.8,157,661,157z"/>
	<path class="st4" d="M963,49c0.3,0,0.9-0.1,1.7-0.1c-1.2,0.1-1.9,0.1-2,0.1C962.8,49,962.8,49,963,49z"/>
	<rect y="434.8" class="st5" width="1400" height="465.2"/>
	<path class="st6" d="M1400,761.3C1281.1,763.9,377.4,782,0,728.9V900h1400V761.3z"/>
	<path class="st7" d="M1400,782.1C1045.5,809.3,353.8,859.2,0,860.3V900h1400V782.1z"/>
	<path class="st8" d="M1400,434.8v180.3c-76.2-9.9-194.8-21.9-301.1-18.2c-174,6-360,39-588.1,0c-174-29.8-409.1-14.1-510.8-5v-157
		H1400z"/>
	<path class="st8" d="M1400,434.8V645c-104,21-194-6-301.1-5.7c-174.2,0.5-360,49.2-588.1,0C339.9,602.4,175,631.9,9.1,633
		c-3,0-6.1,0-9.1,0V434.8H1400z"/>
	<path class="st9" d="M0,499.4c145-11.2,384.1-22.2,627.8-1.5c261.5,22.1,586.5,5.1,772.2-8.5v-54.5H0V499.4z"/>
	<path class="st10" d="M0,474.9c99-6.8,332.9-20,589.1-14.3c265.8,5.9,639.5,12.7,810.9,8.8v-34.6H0V474.9z"/>
	<path class="st1" d="M510.8,639.3c228,49.2,413.9,0.5,588.1,0C1206,639,1296,666,1400,645v-20.9c-47,8.9-103.5-4.2-231.9-22.5
		c-168-24-216-16.5-309,15s-244.5,33-358.5-4.5s-159-39-310.5-21C91.8,602.8,30.7,609.4,0,612.6V633
		C169,633,336.8,601.8,510.8,639.3z"/>
	<path class="st1" d="M856.3,582c10.8-1.3,43.9,6.7,69.3,15c7.6-1.7,15.2-3.2,22.9-4.5c-28.1-11.1-67-22.4-109-22.4
		c-82.5,0-105-9-294-10.5c-93.8-0.7-153.6,10-190.1,21c24.6,1.3,47.7,4.8,72.8,10.6c27.6-4.4,116.9-16.8,210.3-10.6
		c112.5,7.5,112.5,18,90,31.5c-17.3,10.4-49.8,22.6-63.8,27.6c19.5,0.7,39,0.7,57.9-0.2c12-10,34.3-27.8,54.2-39.5c29-17,33-28,50-6
		c8.1,10.5,16,19.4,22,25.8c3.4-1,6.8-2.1,10.1-3.2c7.2-2.4,14.1-4.7,20.8-6.9C864.6,598.6,845.5,583.3,856.3,582z"/>
	<path class="st1" d="M1400,557.9v25c-36.3-3.4-90-7.7-117.3-6.8c-43.5,1.5,68.3,24.2-63.1,43.6c-32.8,4.8-146.9-1.6-167.9-13.6
		s241.5,6,187.5-28.5C1197.1,550.7,1336.6,554.8,1400,557.9z"/>
	<path class="st1" d="M9.1,633L0,630c72.4-6.7,156-16.3,167.6-25.5c21-16.5-61.5-12-72-34.5c-5.9-12.7-54.5-7.7-95.6-0.9V553
		c55-6.7,173-19,166.1,0.5c-9,25.5,73.5,42,109.5,45C302.5,600.8,109.2,622.2,9.1,633z"/>
	<g class="st11">
		<path class="st12" d="M271.2,383.9c0,0-1.6-89.1-61.1-154.3l9.3-7.3c0,0,80.4,59.7,81.4,156.6L271.2,383.9z"/>
		<path class="st13" d="M219.4,222.2l-9.3,7.3c2.6,2.9,5.1,5.8,7.5,8.8c4.1-3.1,10.2-2.7,13.7,1.5c20,23.5,65.7,85.9,39.6,138.9
			c0.2,3.3,0.3,5.2,0.3,5.2l29.6-5C299.8,281.9,219.4,222.2,219.4,222.2z"/>
		<path class="st14" d="M216.4,226.5l-18,20.6l-14.8-8.7l9.3,16.2l-8.7,5.5l-7.8-4.1l4.9,7.8l-4.9,4.1l-13-6.1l4.3,8.7l-17.7,20.6
			C150.1,291.1,144.9,208.3,216.4,226.5z"/>
		<path class="st15" d="M216,226.6c7.4-1.9,14.9-2.8,22.2-2.9c0.7-4.4,1.7-8.7,2.8-13.1c1.7,4,3.3,8.1,4.7,12.2
			c4.6,0.1,9.2,0.6,13.7,1.4c1.2-2.3,2.4-4.6,3.7-6.9c0.2,2.7,0.3,5.4,0.4,8.1c2.7,0.3,5.3,0.7,8,1.2c2-3.3,4.1-6.5,6.4-9.7
			c0,3.6-0.1,7.2-0.3,10.8c7.6,2.3,14.9,5.5,21.8,9.5c-0.3-0.1-0.5-4.5-3.5-11c-2.9-6.4-8.5-14.8-17.5-20.8c-8.8-6-21-9.6-33.3-6.8
			C233,201.2,220.6,210.3,216,226.6z"/>
		<path class="st15" d="M216.1,226.9c-5.8-3-11.8-5.3-17.8-6.9c-0.3-5.2-1-10.4-2.1-15.7c-2.3,4.1-4.5,8.2-6.6,12.4
			c-4.5-1.4-9.2-2.5-13.9-3.2c-0.9-3-2-5.9-3.2-8.8c-1.1,2.6-2.1,5.2-3.1,7.8c-3.6-0.2-7.1-0.1-10.6,0.1c-1.5-3.4-3.2-6.7-5.1-10
			c-1.7,3.6-3.3,7.2-4.7,10.8c-7.7,1.3-15.2,3.5-22.5,6.6c0.4-0.1,1.5-4.6,6.1-10.6c4.5-6,12.4-13.5,23.4-17.7
			c10.8-4.3,24.4-5.2,36.7,0.5C204.8,197.7,215.4,209.9,216.1,226.9z"/>
		<path class="st14" d="M216.2,226.8c3.3-6.2,7.2-11.9,11.4-17.1c-2.9-4.8-5.5-9.9-7.8-15.2c4.6,2.2,9,4.5,13.5,6.9
			c3.1-4,6.6-7.8,10.3-11.4c-1-3.2-1.9-6.5-2.6-9.8c2.6,1.6,5.1,3.3,7.6,5c3-2.3,6.2-4.5,9.4-6.5c-0.7-3.9-1.3-7.9-1.7-11.9
			c3.7,2.1,7.3,4.3,10.8,6.6c7.6-3.6,15.6-6.3,23.9-8c-0.4,0.2-4.2-3.1-11.9-5.6c-7.6-2.5-19.3-4.2-31.5-1.2
			c-12.1,2.9-24.8,10.5-32.1,23C208.2,194.1,206.3,211.3,216.2,226.8z"/>
	</g>
	<g class="st11">
		<path class="st12" d="M343.8,372.9c0,0,1.8-100.5,68.9-174.1l-10.5-8.3c0,0-90.7,67.3-91.8,176.7L343.8,372.9z"/>
		<path class="st13" d="M402.2,190.5l10.5,8.3c-3,3.2-5.8,6.5-8.5,9.9c-4.6-3.5-11.5-3-15.5,1.7c-22.6,26.5-74.1,96.9-44.6,156.7
			c-0.3,3.8-0.3,5.8-0.3,5.8l-33.4-5.7C311.5,257.8,402.2,190.5,402.2,190.5z"/>
		<path class="st14" d="M405.6,195.3l20.3,23.2l16.7-9.8L432,227l9.8,6.2l8.8-4.6l-5.6,8.8l5.6,4.6l14.7-6.9l-4.9,9.8l19.9,23.2
			C480.4,268.2,486.3,174.8,405.6,195.3z"/>
		<path class="st15" d="M406,195.4c-8.4-2.1-16.8-3.2-25.1-3.3c-0.8-4.9-1.9-9.8-3.1-14.7c-1.9,4.5-3.7,9.1-5.3,13.7
			c-5.2,0.2-10.4,0.7-15.5,1.6c-1.3-2.6-2.7-5.2-4.2-7.7c-0.2,3-0.3,6.1-0.5,9.1c-3,0.3-6,0.7-9,1.3c-2.3-3.7-4.7-7.3-7.2-10.9
			c0,4.1,0.1,8.1,0.3,12.1c-8.5,2.6-16.8,6.2-24.5,10.8c0.4-0.2,0.6-5.1,3.9-12.4c3.2-7.2,9.6-16.7,19.8-23.4
			c10-6.8,23.7-10.9,37.6-7.7C386.9,166.8,400.9,177,406,195.4z"/>
		<path class="st15" d="M406,195.8c6.6-3.3,13.3-5.9,20.1-7.8c0.4-5.9,1.2-11.8,2.4-17.7c2.6,4.6,5.1,9.3,7.4,14
			c5.1-1.6,10.3-2.8,15.6-3.6c1.1-3.3,2.3-6.7,3.6-10c1.2,2.9,2.4,5.9,3.5,8.8c4-0.2,8-0.2,12,0.1c1.7-3.8,3.6-7.5,5.7-11.2
			c2,4,3.7,8.1,5.3,12.2c8.7,1.4,17.2,3.9,25.3,7.5c-0.5-0.1-1.7-5.2-6.9-12c-5-6.7-14-15.2-26.3-19.9c-12.1-4.8-27.6-5.9-41.4,0.6
			C418.7,162.9,406.7,176.6,406,195.8z"/>
		<path class="st14" d="M405.8,195.7c-3.7-7-8.1-13.4-12.9-19.3c3.3-5.4,6.2-11.1,8.8-17.1c-5.1,2.5-10.2,5.1-15.2,7.8
			c-3.5-4.6-7.4-8.8-11.6-12.8c1.1-3.6,2.1-7.3,2.9-11c-2.9,1.8-5.7,3.7-8.5,5.7c-3.4-2.6-7-5.1-10.6-7.3c0.8-4.4,1.5-8.9,1.9-13.4
			c-4.2,2.3-8.3,4.8-12.1,7.5c-8.5-4.1-17.6-7.1-27-9c0.5,0.2,4.7-3.5,13.5-6.3c8.6-2.8,21.8-4.8,35.5-1.4
			c13.7,3.2,27.9,11.8,36.2,26C414.9,158.8,417,178.2,405.8,195.7z"/>
	</g>
	<g class="st11">
		<path class="st12" d="M409.4,407.4c0,0,1.1-63.7,43.7-110.3l-6.7-5.3c0,0-57.5,42.6-58.1,111.9L409.4,407.4z"/>
		<path class="st13" d="M446.4,291.9l6.7,5.3c-1.9,2.1-3.7,4.1-5.4,6.3c-2.9-2.2-7.3-1.9-9.8,1.1c-14.3,16.8-46.9,61.4-28.3,99.2
			c-0.2,2.4-0.2,3.7-0.2,3.7l-21.2-3.6C388.9,334.5,446.4,291.9,446.4,291.9z"/>
		<path class="st14" d="M448.5,294.9l12.8,14.7l10.6-6.2l-6.6,11.6l6.2,3.9l5.6-2.9l-3.5,5.6l3.5,2.9l9.3-4.3l-3.1,6.2l12.6,14.7
			C495.9,341.1,499.6,281.9,448.5,294.9z"/>
		<path class="st15" d="M448.8,295c-5.3-1.3-10.6-2-15.9-2.1c-0.5-3.1-1.2-6.2-2-9.3c-1.2,2.9-2.3,5.8-3.4,8.7
			c-3.3,0.1-6.6,0.4-9.8,1c-0.8-1.6-1.7-3.3-2.7-4.9c-0.1,1.9-0.2,3.9-0.3,5.8c-1.9,0.2-3.8,0.5-5.7,0.8c-1.4-2.3-3-4.6-4.6-6.9
			c0,2.6,0.1,5.1,0.2,7.7c-5.4,1.6-10.6,3.9-15.5,6.8c0.2-0.1,0.4-3.2,2.5-7.9c2.1-4.5,6.1-10.5,12.5-14.8c6.3-4.3,15-6.9,23.8-4.9
			C436.7,276.9,445.5,283.3,448.8,295z"/>
		<path class="st15" d="M448.7,295.2c4.2-2.1,8.4-3.8,12.7-4.9c0.2-3.7,0.7-7.5,1.5-11.2c1.6,2.9,3.2,5.9,4.7,8.9
			c3.2-1,6.6-1.8,9.9-2.3c0.7-2.1,1.4-4.2,2.3-6.3c0.8,1.9,1.5,3.7,2.2,5.6c2.5-0.1,5.1-0.1,7.6,0.1c1.1-2.4,2.3-4.8,3.6-7.1
			c1.2,2.5,2.4,5.1,3.3,7.7c5.5,0.9,10.9,2.5,16,4.7c-0.3-0.1-1.1-3.3-4.4-7.6c-3.2-4.3-8.9-9.6-16.7-12.6c-7.7-3-17.5-3.7-26.2,0.4
			C456.8,274.4,449.2,283,448.7,295.2z"/>
		<path class="st14" d="M448.6,295.1c-2.4-4.4-5.1-8.5-8.2-12.2c2.1-3.4,3.9-7,5.6-10.8c-3.3,1.6-6.5,3.2-9.6,4.9
			c-2.2-2.9-4.7-5.6-7.3-8.1c0.7-2.3,1.3-4.6,1.9-7c-1.8,1.2-3.6,2.4-5.4,3.6c-2.2-1.7-4.4-3.2-6.7-4.6c0.5-2.8,0.9-5.6,1.2-8.5
			c-2.7,1.5-5.2,3.1-7.7,4.7c-5.4-2.6-11.1-4.5-17.1-5.7c0.3,0.1,3-2.2,8.5-4c5.4-1.8,13.8-3,22.5-0.9c8.7,2,17.7,7.5,22.9,16.5
			C454.4,271.8,455.7,284.1,448.6,295.1z"/>
	</g>
	<g class="st11">
		<path class="st12" d="M214.5,428.8c0,0-1.2-67.5-46.3-116.9l7.1-5.6c0,0,60.9,45.2,61.7,118.7L214.5,428.8z"/>
		<path class="st13" d="M175.3,306.3l-7.1,5.6c2,2.2,3.9,4.4,5.7,6.6c3.1-2.4,7.7-2,10.4,1.1c15.2,17.8,49.8,65.1,30,105.2
			c0.2,2.5,0.2,3.9,0.2,3.9l22.4-3.8C236.2,351.5,175.3,306.3,175.3,306.3z"/>
		<path class="st14" d="M173,309.6l-13.6,15.6l-11.2-6.6l7,12.3l-6.6,4.2l-5.9-3.1l3.7,5.9l-3.7,3.1l-9.9-4.6l3.3,6.6l-13.4,15.6
			C122.8,358.5,118.8,295.8,173,309.6z"/>
		<path class="st15" d="M172.7,309.6c5.6-1.4,11.3-2.1,16.8-2.2c0.6-3.3,1.3-6.6,2.1-9.9c1.3,3.1,2.5,6.1,3.6,9.2
			c3.5,0.1,7,0.5,10.4,1c0.9-1.7,1.8-3.5,2.8-5.2c0.1,2,0.2,4.1,0.3,6.1c2,0.2,4,0.5,6.1,0.9c1.5-2.5,3.1-4.9,4.8-7.3
			c0,2.7-0.1,5.4-0.2,8.2c5.7,1.7,11.3,4.1,16.5,7.2c-0.2-0.1-0.4-3.4-2.6-8.3c-2.2-4.8-6.5-11.2-13.3-15.7
			c-6.7-4.6-15.9-7.3-25.2-5.2C185.5,290.4,176.2,297.3,172.7,309.6z"/>
		<path class="st15" d="M172.7,309.9c-4.4-2.2-8.9-4-13.5-5.2c-0.3-3.9-0.8-7.9-1.6-11.9c-1.7,3.1-3.4,6.2-5,9.4
			c-3.4-1.1-7-1.9-10.5-2.4c-0.7-2.2-1.5-4.5-2.4-6.7c-0.8,2-1.6,3.9-2.3,5.9c-2.7-0.1-5.4-0.1-8.1,0.1c-1.2-2.5-2.4-5.1-3.8-7.5
			c-1.3,2.7-2.5,5.4-3.5,8.2c-5.8,1-11.5,2.6-17,5c0.3-0.1,1.1-3.5,4.6-8c3.4-4.5,9.4-10.2,17.7-13.4c8.1-3.2,18.5-3.9,27.8,0.4
			C164.2,287.8,172.3,297,172.7,309.9z"/>
		<path class="st14" d="M172.9,309.8c2.5-4.7,5.4-9,8.7-12.9c-2.2-3.6-4.2-7.5-5.9-11.5c3.4,1.7,6.9,3.4,10.2,5.2
			c2.4-3.1,5-5.9,7.8-8.6c-0.7-2.4-1.4-4.9-2-7.4c1.9,1.2,3.8,2.5,5.7,3.8c2.3-1.8,4.7-3.4,7.2-4.9c-0.5-3-1-6-1.3-9
			c2.8,1.6,5.5,3.2,8.1,5c5.7-2.8,11.8-4.8,18.1-6.1c-0.3,0.1-3.1-2.3-9.1-4.2c-5.8-1.9-14.6-3.2-23.9-0.9
			c-9.2,2.2-18.8,7.9-24.3,17.5C166.8,285,165.3,298.1,172.9,309.8z"/>
	</g>
	<path class="st16" d="M-8.6,841c10.3,5.5,19.3,12.1,27.1,18.9c10.4-6.7,19.9-13.8,28.5-21.1c-8.5-14-15.8-25.2-15.8-25.2
		c10.7,3.3,20.4,8,28.9,13c11.8-11.8,21.6-24.2,29.7-37c-14.1-19.5-30.2-35.2-30.2-35.2c21.3,1.9,30,5.7,44.3,8.9
		c5.7-12.6,10-25.4,13.1-38.2c-21.4-15.5-45.9-31-45.9-31c18.8-2.4,36.6-0.6,51.2,2.4c1.4-11.5,2-22.9,2.1-34
		c-23.4-11.1-47.7-21.1-47.7-21.1c16.2-5.1,32.4-6.8,46.4-6.9c-1.2-13.1-3.1-25.4-5.3-36.6c-13.6-6.1-24.7-10.7-24.7-10.7
		c7.2-2.3,14.4-3.7,21.4-4.6c-6.7-27.9-14.4-45.6-14.4-45.6c-15.5,5-29.9,10.4-43.2,16.3c5.4,7.1,10.6,15.2,14.8,24.3
		c0,0-16.1-7.7-33.7-15.3c-10,5.2-19.3,10.6-27.9,16.2c7.7,9.5,15.2,20.7,21.1,33.6c0,0-19.8-9.5-41.5-18.8
		c-13.7,10.9-25.4,22.5-35.4,34.5c12.6,9,27.1,21.7,38.7,38.4c0,0-29.8-8.4-56.3-14c-21.5,34.8-30.9,71.9-33.5,106.5
		c12.7,2.9,27.4,7.8,41.4,16.2c0,0-20.9,3.3-42.2,7.6c0.1,11,0.7,21.6,1.8,31.6c14.1,0.6,30.4,2.9,46.6,8.7c0,0-21.2,7.7-43,16.7
		c6.7,37,17.2,61.6,17.2,61.6c29.8-8.8,55.3-19.5,77.2-31.7C-3.5,853.5-8.6,841-8.6,841z"/>
	<path class="st16" d="M327.1,898C352.5,801.2,458,697,458,697c-144.2,46.3-212.1,168.4-227.9,201H327.1z"/>
	<path class="st16" d="M250.2,898c0-107.2,71.9-241.2,71.9-241.2C217.2,730,174.8,836.1,158.3,898H250.2z"/>
	<path id="XMLID_25_" class="st16" d="M58.2,901.9c0,0,127.8-259.3,225.4-294.1c0,0-140.5,50-265.4,270.8l2.8,65.2L58.2,901.9z"/>
	<g class="st11">
		<path class="st15" d="M173.2,827.5h-46.7C228.5,665.6,335,627.7,335,627.7C280.7,664.6,212.6,764.8,173.2,827.5z"/>
		<path class="st15" d="M117.4,812.3l-44.5,14.3c47.7-185.3,137.6-253.9,137.6-253.9C170.1,624.4,135.8,740.6,117.4,812.3z"/>
		<path class="st15" d="M271.3,841.8l-46.4,5.2c76.5-101.5,144-134.5,144-134.5C336.8,740.1,302.4,789.3,271.3,841.8z"/>
		<path class="st15" d="M338.6,894.4l-40.3-15.9c103.3-59.5,172.4-68.1,172.4-68.1C431.6,825.9,385.2,857.3,338.6,894.4z"/>
	</g>
	<path class="st17" d="M162.8,788.9c-37.1-16.2-97.6-18.5-162.8-14V900h355.1C301.9,864,227.7,817.2,162.8,788.9z"/>
	<path class="st18" d="M139.1,819.1c-32.9-21.9-95.4-19.4-139.1-14V900h266C217.8,868.1,164.4,835.9,139.1,819.1z"/>
	<path class="st5" d="M105,435c0,0,208-180,440,0H105z"/>
	<path class="st7" d="M1228.1,652.6c0,0-191.1-0.6-393.1,23.4s-294,9-346-22s-143-31-143-31l4.8-1.7c52.9,1.4,106.1,6.4,160,18.1
		c228,49.2,413.9,0.5,588.1,0c32.8-0.1,64,2.4,94.5,5.2L1228.1,652.6z"/>
	<ellipse class="st6" cx="959.6" cy="732.8" rx="16.5" ry="5.2"/>
	<ellipse class="st7" cx="1111.1" cy="695.3" rx="15" ry="5.2"/>
	<ellipse class="st7" cx="401.5" cy="675" rx="14.5" ry="5"/>
	<ellipse class="st7" cx="547.5" cy="804.5" rx="26.5" ry="7.5"/>
	<ellipse class="st7" cx="759.5" cy="729" rx="13.5" ry="6"/>
	<ellipse class="st7" cx="214.5" cy="691.5" rx="11.5" ry="3.5"/>
	<ellipse class="st7" cx="361.5" cy="647" rx="9.5" ry="4"/>
	<ellipse class="st7" cx="1185" cy="699.2" rx="8.5" ry="2.8"/>
	<ellipse class="st7" cx="1096" cy="743" rx="15.5" ry="5.5"/>
	<ellipse class="st7" cx="849" cy="715" rx="10.5" ry="5.5"/>
	<ellipse class="st7" cx="991.8" cy="686" rx="12.2" ry="4"/>
	<ellipse class="st7" cx="716.2" cy="805.8" rx="16.8" ry="4.8"/>
	<ellipse class="st7" cx="533.2" cy="717.5" rx="9.8" ry="2"/>
	<ellipse class="st7" cx="650.5" cy="734.5" rx="11.5" ry="3.5"/>
	<ellipse class="st7" cx="277" cy="649.5" rx="7" ry="2.5"/>
	<ellipse class="st7" cx="188.2" cy="645.2" rx="3.2" ry="0.8"/>
	<ellipse class="st7" cx="126.5" cy="645.5" rx="6" ry="3"/>
	<ellipse class="st7" cx="177.8" cy="729.5" rx="5.8" ry="1.5"/>
	<ellipse class="st7" cx="450" cy="749.5" rx="8" ry="2.5"/>
	<ellipse class="st7" cx="418.5" cy="790.5" rx="9.5" ry="4.5"/>
	<ellipse class="st7" cx="871.5" cy="799" rx="1.5" ry="1"/>
	<ellipse class="st7" cx="910" cy="699.7" rx="5" ry="2.7"/>
	<ellipse class="st7" cx="1028" cy="719" rx="2.3" ry="1.3"/>
	<ellipse class="st7" cx="1221.3" cy="675.3" rx="3.7" ry="1.7"/>
	<ellipse class="st7" cx="1219.3" cy="713.7" rx="2.3" ry="0.7"/>
	<ellipse class="st7" cx="1127.7" cy="787.3" rx="4" ry="1.7"/>
	<ellipse class="st7" cx="938" cy="802.3" rx="16.3" ry="6"/>
	<ellipse class="st7" cx="917" cy="854" rx="16" ry="5"/>
	<ellipse class="st7" cx="634.7" cy="788.3" rx="47" ry="10"/>
	<ellipse class="st7" cx="370.7" cy="700.3" rx="47" ry="10"/>
	<ellipse class="st19" cx="838.7" cy="861.8" rx="47" ry="10"/>
	<ellipse class="st6" cx="1035.7" cy="720.8" rx="33.2" ry="7.1"/>
	<g class="st11">
		<path class="st13" d="M648.7,753.7c-6.9-4-18.5-5.5-25.6-1.8c-13.5,7-33.9,17.9-32.6,19.3c1.2,1.3,6.8,7,11.2,11.4
			c3.6,3.6,8.4,5.6,13.4,5.6l33.6,0.2c5.6,0,10.9-2.9,13.9-7.6l4.6-11.5c1.8-4.4-0.5-9.4-4.9-10.9L648.7,753.7z"/>
		<path class="st20" d="M662.3,758.4l-13.6-4.7c-2.5-1.5-5.7-2.6-9-3.3c1.1,11.8-2.3,33.5-45.4,24.7c2.2,2.3,5,5.1,7.4,7.5
			c3.6,3.6,8.4,5.6,13.4,5.6l33.6,0.2c5.6,0,10.9-2.9,13.9-7.6l4.6-11.5C669,765,666.8,760,662.3,758.4z"/>
	</g>
	<g class="st11">
		<path class="st13" d="M857.9,829.5c-6.4-4.6-17.8-7.3-25.1-4.3c-14,5.6-35.3,14.3-34.1,15.9c1,1.4,6,7.6,10,12.4
			c3.2,3.9,7.7,6.4,12.7,6.9l33.2,3.5c5.6,0.6,11.1-1.7,14.5-6.2l5.7-10.9c2.2-4.2,0.5-9.3-3.8-11.3L857.9,829.5z"/>
		<path class="st20" d="M870.9,835.4l-13-6c-2.3-1.7-5.4-3.1-8.6-4.1c-0.1,11.7-5.5,32.9-47.3,19.9c2,2.4,4.4,5.5,6.6,8.1
			c3.2,3.9,7.7,6.4,12.7,6.9l33.2,3.5c5.6,0.6,11.1-1.7,14.5-6.2l5.7-10.9C876.9,842.6,875.2,837.4,870.9,835.4z"/>
	</g>
	<g class="st11">
		<path class="st13" d="M1046.6,702c-4-2.3-10.7-3.2-14.8-1.1c-7.8,4-19.6,10.3-18.9,11.2c0.7,0.7,3.9,4,6.5,6.6
			c2.1,2.1,4.9,3.2,7.8,3.3l19.4,0.1c3.3,0,6.3-1.7,8.1-4.4l2.7-6.6c1-2.5-0.3-5.4-2.9-6.3L1046.6,702z"/>
		<path class="st20" d="M1054.5,704.7l-7.9-2.7c-1.5-0.8-3.3-1.5-5.2-1.9c0.6,6.8-1.3,19.4-26.3,14.3c1.3,1.3,2.9,2.9,4.3,4.3
			c2.1,2.1,4.9,3.2,7.8,3.3l19.4,0.1c3.3,0,6.3-1.7,8.1-4.4l2.7-6.6C1058.4,708.5,1057.1,705.6,1054.5,704.7z"/>
	</g>
	<g class="st11">
		<path class="st13" d="M387,673.1c-6.1-3.5-16.4-4.9-22.6-1.6c-11.9,6.2-30,15.8-28.8,17.1c1,1.1,6,6.2,9.9,10.1
			c3.1,3.2,7.4,5,11.9,5l29.7,0.2c5,0,9.6-2.5,12.3-6.8l4.1-10.1c1.6-3.9-0.4-8.3-4.4-9.7L387,673.1z"/>
		<path class="st20" d="M399,677.3l-12.1-4.1c-2.2-1.3-5-2.3-8-2.9c1,10.4-2,29.6-40.1,21.8c2,2,4.4,4.5,6.6,6.6
			c3.1,3.2,7.4,5,11.9,5l29.7,0.2c5,0,9.6-2.5,12.3-6.8l4.1-10.1C405,683.1,403,678.7,399,677.3z"/>
	</g>
	<path class="st6" d="M237.3,435H545c-56.4-43.8-111.4-66.2-162.3-75.2C350.8,385.6,296.9,422.4,237.3,435z"/>
	<path class="st17" d="M1400,900v-88.1l-120.1-27.9c-10.9-2.5-22.3-1.5-32.6,3c-29.3,12.7-92.4,39.2-127.3,47.1
		c-29.7,6.7-84.6,41.7-120.3,66H1400z"/>
	<path class="st21" d="M252,900H150.6c42-58.5,116-135.7,230.5-172.4C381.1,727.6,299.3,808.4,252,900z"/>
	<path class="st16" d="M30.9,900c43.6-53.2,101-105.5,176.1-145.6c0,0-43.8,62.5-83.8,145.6H30.9z"/>
	<path class="st16" d="M1234.2,900c-29.4-34.8-67.6-68.6-116.7-94.9c0,0,28.2,40.3,55,94.9H1234.2z"/>
	<g class="st11">
		<path class="st12" d="M1409.8,609.6c0,0-4.4-248.6-170.4-430.5l26.1-20.5c0,0,224.3,166.4,227,436.9L1409.8,609.6z"/>
		<path class="st13" d="M1265.5,158.7l-26.1,20.5c7.3,8,14.3,16.2,21,24.4c11.5-8.7,28.4-7.5,38.3,4.2
			c55.8,65.6,183.3,239.6,110.3,387.5c0.6,9.3,0.7,14.4,0.7,14.4l82.6-14.1C1489.8,325.1,1265.5,158.7,1265.5,158.7z"/>
		<path class="st14" d="M1257.2,170.7l-50.1,57.4l-41.2-24.2l25.9,45.2l-24.2,15.3l-21.8-11.3l13.7,21.8l-13.7,11.3l-36.4-17
			l12.1,24.2l-49.3,57.4C1072.2,350.8,1057.7,119.8,1257.2,170.7z"/>
		<path class="st15" d="M1256.1,170.9c20.7-5.2,41.5-7.8,62-8.2c2.1-12.2,4.7-24.3,7.7-36.4c4.8,11.2,9.1,22.6,13.1,34
			c12.9,0.4,25.7,1.7,38.3,3.9c3.3-6.4,6.8-12.8,10.5-19.1c0.5,7.5,0.8,15.1,1.1,22.6c7.5,0.8,14.9,1.8,22.3,3.2
			c5.6-9.1,11.5-18.1,17.9-27c-0.1,10-0.3,20-0.9,30c21.1,6.3,41.5,15.2,60.7,26.6c-0.9-0.4-1.4-12.7-9.7-30.7
			c-8-17.7-23.8-41.2-48.9-57.9c-24.6-16.8-58.5-26.9-92.9-19.1C1303.3,100.2,1268.8,125.4,1256.1,170.9z"/>
		<path class="st15" d="M1256.2,171.8c-16.2-8.3-32.9-14.7-49.6-19.3c-1-14.5-2.9-29.1-5.9-43.8c-6.4,11.4-12.5,23-18.4,34.7
			c-12.7-3.9-25.6-6.9-38.6-8.9c-2.6-8.3-5.7-16.5-9-24.6c-3,7.2-5.9,14.5-8.6,21.9c-9.9-0.5-19.8-0.4-29.7,0.2
			c-4.3-9.4-9-18.7-14.1-27.8c-4.9,9.9-9.2,20-13,30.1c-21.4,3.5-42.5,9.7-62.7,18.4c1.2-0.2,4.2-12.7,17.1-29.6
			c12.5-16.6,34.7-37.6,65.1-49.3c30-11.9,68.1-14.5,102.3,1.4C1224.8,90.4,1254.4,124.3,1256.2,171.8z"/>
		<path class="st14" d="M1256.6,171.5c9.2-17.3,20-33.2,31.9-47.6c-8.1-13.4-15.4-27.5-21.9-42.3c12.7,6.1,25.2,12.6,37.6,19.2
			c8.8-11.3,18.3-21.9,28.6-31.7c-2.8-8.9-5.2-18-7.2-27.3c7.1,4.5,14.2,9.2,21.1,14c8.4-6.5,17.2-12.6,26.3-18.1
			c-2-10.9-3.6-22-4.7-33.2c10.4,5.8,20.4,11.9,30,18.5c21.1-10.1,43.4-17.7,66.7-22.4c-1.2,0.5-11.6-8.6-33.3-15.6
			c-21.2-7-53.8-11.8-87.9-3.3c-33.8,8-69.1,29.2-89.4,64.3C1234.2,80.3,1228.9,128.4,1256.6,171.5z"/>
	</g>
	<path class="st16" d="M1519.1,750.2c10.5-6.3,21.4-11,31.8-14.5c-0.5-13.1-1.8-25.5-3.9-37.2c-17.2,0.2-31.3,0.8-31.3,0.8
		c8.8-7.9,18.2-14.2,27.3-19.2c-4.4-17.1-10.4-32.7-17.6-46.9c-25.3,2.3-48.2,8.4-48.2,8.4c13.2-18.3,21.3-24.2,32-35.4
		c-8.4-11.9-17.7-22.7-27.6-32.4c-25.5,11.1-52.9,25-52.9,25c7.9-18.3,19.2-33.6,29.7-45.2c-9.7-7.5-19.7-14.2-29.7-20.1
		c-22.7,15.3-44.8,31.9-44.8,31.9c4.1-17.4,11.2-33,18.7-45.9c-12.5-6-24.7-10.9-36.1-14.9c-12.8,9.1-23,16.7-23,16.7
		c1.8-7.8,4.4-15.1,7.4-21.8c-28.9-8.9-49.2-11.5-49.2-11.5c-3.9,16.8-6.6,32.8-8.4,48c9.3-1.1,19.5-1.5,30-0.4
		c0,0-15.6,10.4-31.9,22.3c-0.7,11.8-0.8,23.2-0.3,34.1c12.8-1.9,27-2.7,41.8-1.1c0,0-19.3,12.9-39.4,27.6
		c2.5,18.3,6.7,35.2,12.3,50.7c14.9-6.6,34.2-12.9,55.7-14.4c0,0-23.6,22.6-42.9,43.6c20,38.3,48.6,66.7,78.7,87.7
		c9.5-10,21.8-20.7,36.9-28.9c0,0-8.3,20.7-15.8,42.4c10,5.8,20,10.9,29.7,15.4c8.1-12.4,18.9-26,33-37.6c0,0-4.5,23.4-8,48
		c37.1,13.8,65.1,17.5,65.1,17.5c8-31.8,12.1-60.7,12.8-87.1C1533.3,752.3,1519.1,750.2,1519.1,750.2z"/>
	<path class="st16" d="M1378.5,900h151.8l9-22.4c0,0-99.1-201.5-373.3-263.4C1166,614.2,1361.5,766.2,1378.5,900z"/>
	<path class="st16" d="M1293.8,900h109.9c-45.5-63.4-125.6-147-249.7-186.8C1154,713.2,1242.7,800.8,1293.8,900z"/>
	<g class="st11">
		<path class="st15" d="M1365.8,900h54.3c-118.6-188.2-242.4-232.3-242.4-232.3C1240.8,710.7,1320,827.2,1365.8,900z"/>
		<path class="st15" d="M1267.7,900h44c-82.4-87-149.1-110.8-149.1-110.8C1195.7,811.7,1233,854.1,1267.7,900z"/>
		<path class="st15" d="M1153.5,900h28.8c-49.3-61.9-89.9-84.2-89.9-84.2C1112.8,835,1133.8,865.7,1153.5,900z"/>
	</g>
</g>
</svg>
